Coordinates
version=1
nRows=16
nColumns=42
inDegrees=yes

Units are S.I. units (second, meters, Newtons, ...)
Angles are in degrees.

endheader
time	pelvis_tilt	pelvis_list	pelvis_rotation	pelvis_tx	pelvis_ty	pelvis_tz	hip_flexion_r	hip_adduction_r	hip_rotation_r	knee_angle_r	ankle_angle_r	subtalar_angle_r	mtp_angle_r	hip_flexion_l	hip_adduction_l	hip_rotation_l	knee_angle_l	ankle_angle_l	subtalar_angle_l	mtp_angle_l	lumbar_extension	lumbar_bending	lumbar_rotation	arm_flex_r	arm_add_r	arm_rot_r	elbow_flex_r	pro_sup_r	wrist_flex_r	wrist_dev_r	arm_flex_l	arm_add_l	arm_rot_l	elbow_flex_l	pro_sup_l	wrist_flex_l	wrist_dev_l	scapula_weld_r	clavicle_weld_r	scapula_weld_l	clavicle_weld_l
      6.19000000	    -11.35040610	      1.26000476	      6.19989933	      0.26595897	      0.88435687	     -0.05460983	     34.57902344	    -18.35193984	    -16.83975274	    -38.89393525	     12.25273957	      0.00000000	      0.00000000	     37.08507796	     -5.11837484	     -9.14276253	    -45.34401050	     16.69000138	      0.00000000	      0.00000000	      0.00000000	      0.00000000	      0.00000000	      0.00000000	    -14.07918328	      0.00000000	     75.10381815	     44.98878671	      0.00000000	      0.00000000	      0.00000000	    -14.07918328	      0.00000000	     75.10381815	     44.98878671	      0.00000000	      0.00000000	      0.00000000	      0.00000000	      0.00000000	      0.00000000
      6.20000000	    -11.39249733	      1.31623762	      6.22986484	      0.26350512	      0.88443392	     -0.05728274	     34.71425737	    -18.57108300	    -16.70883472	    -38.69189838	     11.71839086	      0.00000000	      0.00000000	     37.19325144	     -4.90735611	     -9.38772265	    -45.19206694	     16.47346628	      0.00000000	      0.00000000	      0.00000000	      0.00000000	      0.00000000	      0.00000000	    -14.07993835	      0.00000000	     75.10365170	     44.98883664	      0.00000000	      0.00000000	      0.00000000	    -14.07993835	      0.00000000	     75.10365170	     44.98883664	      0.00000000	      0.00000000	      0.00000000	      0.00000000	      0.00000000	      0.00000000
      6.21000000	    -11.47669976	      1.31091565	      6.20397815	      0.26095422	      0.88458416	     -0.05997443	     34.87718657	    -18.71043240	    -16.60573100	    -38.40217408	     11.16833589	      0.00000000	      0.00000000	     37.30863210	     -4.78061899	     -9.68202916	    -44.95500927	     16.29256600	      0.00000000	      0.00000000	      0.00000000	      0.00000000	      0.00000000	      0.00000000	    -14.08048751	      0.00000000	     75.10353074	     44.98887284	      0.00000000	      0.00000000	      0.00000000	    -14.08048751	      0.00000000	     75.10353074	     44.98887284	      0.00000000	      0.00000000	      0.00000000	      0.00000000	      0.00000000	      0.00000000
      6.22000000	    -11.61493104	      1.30417718	      6.10792056	      0.25818308	      0.88472432	     -0.06267269	     35.13277230	    -18.81893879	    -16.42256455	    -38.07259550	     10.44615818	      0.00000000	      0.00000000	     37.46280397	     -4.68178945	    -10.03341527	    -44.67442806	     16.04028476	      0.00000000	      0.00000000	      0.00000000	      0.00000000	      0.00000000	      0.00000000	    -14.08110405	      0.00000000	     75.10339502	     44.98891335	      0.00000000	      0.00000000	      0.00000000	    -14.08110405	      0.00000000	     75.10339502	     44.98891335	      0.00000000	      0.00000000	      0.00000000	      0.00000000	      0.00000000	      0.00000000
      6.23000000	    -11.83053031	      1.29155297	      5.90767631	      0.25512458	      0.88483215	     -0.06535431	     35.51986964	    -18.88153038	    -16.17193875	    -37.70559192	      9.68734307	      0.00000000	      0.00000000	     37.68737596	     -4.62803604	    -10.45984162	    -44.36593018	     15.75245618	      0.00000000	      0.00000000	      0.00000000	      0.00000000	      0.00000000	      0.00000000	    -14.08199628	      0.00000000	     75.10319874	     44.98897179	      0.00000000	      0.00000000	      0.00000000	    -14.08199628	      0.00000000	     75.10319874	     44.98897179	      0.00000000	      0.00000000	      0.00000000	      0.00000000	      0.00000000	      0.00000000
      6.24000000	    -12.06695935	      1.22556649	      5.68040656	      0.25199079	      0.88506835	     -0.06798180	     35.90362957	    -18.87171906	    -15.92594577	    -37.26976487	      8.92896310	      0.00000000	      0.00000000	     37.91133638	     -4.64536485	    -10.90021714	    -43.99548305	     15.47587462	      0.00000000	      0.00000000	      0.00000000	      0.00000000	      0.00000000	      0.00000000	    -14.08286241	      0.00000000	     75.10300839	     44.98902828	      0.00000000	      0.00000000	      0.00000000	    -14.08286241	      0.00000000	     75.10300839	     44.98902828	      0.00000000	      0.00000000	      0.00000000	      0.00000000	      0.00000000	      0.00000000
      6.25000000	    -12.29913273	      1.12415981	      5.36468481	      0.24872701	      0.88541741	     -0.07056691	     36.28724930	    -18.78946261	    -15.67331459	    -36.77239891	      8.14815950	      0.00000000	      0.00000000	     38.11171624	     -4.71335521	    -11.31674275	    -43.58532234	     15.17673729	      0.00000000	      0.00000000	      0.00000000	      0.00000000	      0.00000000	      0.00000000	    -14.08353537	      0.00000000	     75.10286061	     44.98907200	      0.00000000	      0.00000000	      0.00000000	    -14.08353537	      0.00000000	     75.10286061	     44.98907200	      0.00000000	      0.00000000	      0.00000000	      0.00000000	      0.00000000	      0.00000000
      6.26000000	    -12.61709047	      0.98788154	      4.94745836	      0.24530964	      0.88578438	     -0.07297573	     36.78632098	    -18.61589067	    -15.34616198	    -36.24691825	      7.34455937	      0.00000000	      0.00000000	     38.39116497	     -4.88738088	    -11.83524649	    -43.15126219	     14.82773331	      0.00000000	      0.00000000	      0.00000000	      0.00000000	      0.00000000	      0.00000000	    -14.08440477	      0.00000000	     75.10266984	     44.98912828	      0.00000000	      0.00000000	      0.00000000	    -14.08440477	      0.00000000	     75.10266984	     44.98912828	      0.00000000	      0.00000000	      0.00000000	      0.00000000	      0.00000000	      0.00000000
      6.27000000	    -12.92073933	      0.81829441	      4.48749227	      0.24186983	      0.88628681	     -0.07536430	     37.23921469	    -18.39118563	    -15.03173471	    -35.67822565	      6.66516932	      0.00000000	      0.00000000	     38.64810196	     -5.09374101	    -12.30774851	    -42.70354835	     14.49499323	      0.00000000	      0.00000000	      0.00000000	      0.00000000	      0.00000000	      0.00000000	    -14.08521067	      0.00000000	     75.10249315	     44.98918025	      0.00000000	      0.00000000	      0.00000000	    -14.08521067	      0.00000000	     75.10249315	     44.98918025	      0.00000000	      0.00000000	      0.00000000	      0.00000000	      0.00000000	      0.00000000
      6.28000000	    -13.23015040	      0.61417195	      3.95334785	      0.23836513	      0.88687000	     -0.07760293	     37.70414238	    -18.09777393	    -14.71000332	    -35.13238038	      6.10170017	      0.00000000	      0.00000000	     38.91246430	     -5.37636111	    -12.79107673	    -42.26548019	     14.15566261	      0.00000000	      0.00000000	      0.00000000	      0.00000000	      0.00000000	      0.00000000	    -14.08607546	      0.00000000	     75.10230371	     44.98923579	      0.00000000	      0.00000000	      0.00000000	    -14.08607546	      0.00000000	     75.10230371	     44.98923579	      0.00000000	      0.00000000	      0.00000000	      0.00000000	      0.00000000	      0.00000000
      6.29000000	    -13.55298366	      0.37108398	      3.37125090	      0.23485392	      0.88751363	     -0.07971284	     38.17264326	    -17.74640281	    -14.38745986	    -34.63079052	      5.70719157	      0.00000000	      0.00000000	     39.19798522	     -5.72762702	    -13.26709332	    -41.85131415	     13.83568519	      0.00000000	      0.00000000	      0.00000000	      0.00000000	      0.00000000	      0.00000000	    -14.08722122	      0.00000000	     75.10205297	     44.98930902	      0.00000000	      0.00000000	      0.00000000	    -14.08722122	      0.00000000	     75.10205297	     44.98930902	      0.00000000	      0.00000000	      0.00000000	      0.00000000	      0.00000000	      0.00000000
      6.30000000	    -13.81170196	      0.11488178	      2.74844979	      0.23136148	      0.88835234	     -0.08173125	     38.56187501	    -17.37278376	    -14.08039962	    -34.20328459	      5.47209022	      0.00000000	      0.00000000	     39.40190703	     -6.09648358	    -13.68858367	    -41.41970604	     13.49221945	      0.00000000	      0.00000000	      0.00000000	      0.00000000	      0.00000000	      0.00000000	    -14.08822647	      0.00000000	     75.10183324	     44.98937293	      0.00000000	      0.00000000	      0.00000000	    -14.08822647	      0.00000000	     75.10183324	     44.98937293	      0.00000000	      0.00000000	      0.00000000	      0.00000000	      0.00000000	      0.00000000
      6.31000000	    -14.05001130	     -0.13972496	      2.11788626	      0.22797800	      0.88929725	     -0.08365607	     38.89568142	    -17.00994485	    -13.82087693	    -33.86190509	      5.47510104	      0.00000000	      0.00000000	     39.57687534	     -6.46917281	    -14.08236545	    -41.00293090	     13.18507282	      0.00000000	      0.00000000	      0.00000000	      0.00000000	      0.00000000	      0.00000000	    -14.08921001	      0.00000000	     75.10161846	     44.98943518	      0.00000000	      0.00000000	      0.00000000	    -14.08921001	      0.00000000	     75.10161846	     44.98943518	      0.00000000	      0.00000000	      0.00000000	      0.00000000	      0.00000000	      0.00000000
      6.32000000	    -14.24486153	     -0.39831166	      1.47021974	      0.22462412	      0.89034154	     -0.08549572	     39.19293668	    -16.66289952	    -13.59917056	    -33.70265669	      5.68365637	      0.00000000	      0.00000000	     39.70568521	     -6.84816993	    -14.43846723	    -40.60049651	     12.88140994	      0.00000000	      0.00000000	      0.00000000	      0.00000000	      0.00000000	      0.00000000	    -14.09016373	      0.00000000	     75.10141042	     44.98949524	      0.00000000	      0.00000000	      0.00000000	    -14.09016373	      0.00000000	     75.10141042	     44.98949524	      0.00000000	      0.00000000	      0.00000000	      0.00000000	      0.00000000	      0.00000000
      6.33000000	    -14.37455120	     -0.61936606	      0.91891067	      0.22146037	      0.89159433	     -0.08743032	     39.36703659	    -16.47664625	    -13.61664082	    -33.71559693	      6.01819755	      0.00000000	      0.00000000	     39.72608232	     -7.10413562	    -14.66999524	    -40.12163986	     12.68701030	      0.00000000	      0.00000000	      0.00000000	      0.00000000	      0.00000000	      0.00000000	    -14.09057113	      0.00000000	     75.10132163	     44.98952080	      0.00000000	      0.00000000	      0.00000000	    -14.09057113	      0.00000000	     75.10132163	     44.98952080	      0.00000000	      0.00000000	      0.00000000	      0.00000000	      0.00000000	      0.00000000
      6.34000000	    -14.49666164	     -0.85557691	      0.24888332	      0.21823964	      0.89276775	     -0.08905075	     39.59763587	    -16.19475554	    -13.45703995	    -33.98769185	      6.67133912	      0.00000000	      0.00000000	     39.77029929	     -7.49317147	    -15.02556983	    -39.75168041	     12.32260223	      0.00000000	      0.00000000	      0.00000000	      0.00000000	      0.00000000	      0.00000000	    -14.09119749	      0.00000000	     75.10118517	     44.98956001	      0.00000000	      0.00000000	      0.00000000	    -14.09119749	      0.00000000	     75.10118517	     44.98956001	      0.00000000	      0.00000000	      0.00000000	      0.00000000	      0.00000000	      0.00000000
